<svg width="40" height="40" viewBox="0 0 40 40" fill="none" xmlns="http://www.w3.org/2000/svg">
<path d="M23.3334 20C23.3334 21.841 21.841 23.3334 20 23.3334C18.1591 23.3334 16.6667 21.841 16.6667 20C16.6667 18.1591 18.1591 16.6667 20 16.6667C21.841 16.6667 23.3334 18.1591 23.3334 20Z" fill="#F2F2F2"/>
<path fill-rule="evenodd" clip-rule="evenodd" d="M20 10C14.4772 10 10 14.4772 10 20C10 25.5229 14.4772 30 20 30C25.5229 30 30 25.5229 30 20C30 14.4772 25.5229 10 20 10ZM6.66671 20C6.66671 12.6362 12.6362 6.66671 20 6.66671C27.3638 6.66671 33.3334 12.6362 33.3334 20C33.3334 27.3638 27.3638 33.3334 20 33.3334C12.6362 33.3334 6.66671 27.3638 6.66671 20Z" fill="#F2F2F2"/>
<path d="M7.26768 11.1318C6.79413 10.4689 6.86929 9.56071 7.44539 8.98461L8.98423 7.44577C9.56033 6.86967 10.4685 6.79451 11.1315 7.26806L14.1074 9.3937L9.39332 14.1077L7.26768 11.1318Z" fill="#F2F2F2"/>
<path d="M32.7324 28.8684C33.206 29.5313 33.1308 30.4395 32.5547 31.0156L31.0159 32.5544C30.4398 33.1305 29.5316 33.2057 28.8686 32.7322L25.8927 30.6065L30.6068 25.8925L32.7324 28.8684Z" fill="#F2F2F2"/>
<path d="M28.8685 7.2678C29.5315 6.79425 30.4396 6.86941 31.0157 7.44551L32.5546 8.98435C33.1307 9.56045 33.2058 10.4686 32.7323 11.1316L30.6066 14.1075L25.8926 9.39344L28.8685 7.2678Z" fill="#F2F2F2"/>
<path d="M11.1316 32.7323C10.4686 33.2058 9.56045 33.1307 8.98435 32.5546L7.44551 31.0157C6.86941 30.4396 6.79424 29.5315 7.2678 28.8685L9.39344 25.8926L14.1075 30.6066L11.1316 32.7323Z" fill="#F2F2F2"/>
<path d="M35.274 17.2679C36.0777 17.4019 36.6667 18.0972 36.6667 18.9119V21.0882C36.6667 21.9029 36.0777 22.5982 35.274 22.7322L31.6667 23.3334V16.6667L35.274 17.2679Z" fill="#F2F2F2"/>
<path d="M4.72604 22.7322C3.9224 22.5982 3.33337 21.9029 3.33337 21.0882L3.33337 18.9119C3.33337 18.0972 3.9224 17.4019 4.72604 17.2679L8.33337 16.6667L8.33337 23.3334L4.72604 22.7322Z" fill="#F2F2F2"/>
<path d="M17.2679 4.72604C17.4019 3.9224 18.0972 3.33337 18.9119 3.33337H21.0882C21.9029 3.33337 22.5982 3.9224 22.7322 4.72604L23.3334 8.33337H16.6667L17.2679 4.72604Z" fill="#F2F2F2"/>
<path d="M22.7322 35.274C22.5982 36.0777 21.9029 36.6667 21.0882 36.6667H18.9119C18.0972 36.6667 17.4019 36.0777 17.2679 35.274L16.6667 31.6667H23.3334L22.7322 35.274Z" fill="#F2F2F2"/>
</svg>
