<svg width="30" height="34" viewBox="0 0 30 34" fill="none" xmlns="http://www.w3.org/2000/svg">
<path fill-rule="evenodd" clip-rule="evenodd" d="M15 3.4C13.159 3.4 11.6667 4.92223 11.6667 6.8C11.6667 8.67777 13.159 10.2 15 10.2C16.8409 10.2 18.3333 8.67777 18.3333 6.8C18.3333 4.92223 16.8409 3.4 15 3.4ZM8.33333 6.8C8.33333 3.04446 11.3181 0 15 0C18.6819 0 21.6667 3.04446 21.6667 6.8C21.6667 10.5555 18.6819 13.6 15 13.6C11.3181 13.6 8.33333 10.5555 8.33333 6.8Z" fill="white"/>
<path fill-rule="evenodd" clip-rule="evenodd" d="M3.46043 25.5126C4.19406 27.1477 5.69501 28.3808 7.72436 29.2433C9.97036 30.1978 12.6573 30.6 15 30.6C17.3427 30.6 20.0296 30.1978 22.2756 29.2433C24.305 28.3808 25.8059 27.1477 26.5396 25.5126C25.7827 23.9532 24.0205 22.6871 21.6934 21.7742C19.18 20.7882 16.4665 20.4 15 20.4C13.5335 20.4 10.82 20.7882 8.30663 21.7742C5.97953 22.6871 4.2173 23.9532 3.46043 25.5126ZM7.11004 18.6008C10.0134 17.4618 13.1332 17 15 17C16.8668 17 19.9866 17.4618 22.89 18.6008C25.7236 19.7125 28.8366 21.6641 29.9145 24.9624C30.0285 25.3114 30.0285 25.6886 29.9145 26.0376C28.8725 29.2261 26.3067 31.2134 23.5577 32.3817C20.8037 33.5522 17.6573 34 15 34C12.3427 34 9.1963 33.5522 6.44231 32.3817C3.69331 31.2134 1.12752 29.2261 0.0855278 26.0376C-0.0285093 25.6886 -0.0285093 25.3114 0.0855278 24.9624C1.16341 21.6641 4.27636 19.7125 7.11004 18.6008Z" fill="white"/>
</svg>
