<svg width="388" height="174" viewBox="0 0 388 174" fill="none" xmlns="http://www.w3.org/2000/svg">
<rect x="148" y="2" width="92" height="120" rx="10" fill="#1E2228" stroke="#55595F" stroke-width="3"/>
<path d="M176.026 101.753L179.894 110H183.321L179.044 101.182C181.417 100.361 182.926 98.0762 182.926 95.3223C182.926 91.3232 180.26 88.8623 175.938 88.8623H168.673V110H171.705V101.753H176.026ZM171.705 91.4551H175.616C178.297 91.4551 179.85 92.8906 179.85 95.3809C179.85 97.8711 178.282 99.292 175.514 99.292H171.705V91.4551ZM191.422 100.347H193.868C196.651 100.347 198.424 101.812 198.424 104.111C198.424 106.367 196.695 107.788 193.941 107.788C191.407 107.788 189.635 106.411 189.43 104.258H186.573C186.764 107.993 189.723 110.439 194.029 110.439C198.395 110.439 201.485 107.876 201.485 104.229C201.485 101.372 199.801 99.4238 196.974 99.0576V98.8232C199.259 98.2959 200.621 96.4648 200.621 93.9453C200.621 90.6934 197.867 88.4229 193.927 88.4229C189.854 88.4229 187.203 90.7373 186.983 94.4873H189.825C190.016 92.3193 191.524 90.9863 193.824 90.9863C196.124 90.9863 197.647 92.3193 197.647 94.3848C197.647 96.4648 196.065 97.915 193.78 97.915H191.422V100.347ZM205.44 88.8623V110H211.622C217.613 110 220.631 106.426 220.631 99.3652C220.631 92.4072 217.584 88.8623 211.622 88.8623H205.44ZM208.502 91.5723H211.285C215.504 91.5723 217.511 94.0918 217.511 99.3945C217.511 104.8 215.533 107.29 211.285 107.29H208.502V91.5723Z" fill="#F1F1F1"/>
<line x1="148" y1="74.5" x2="240" y2="74.5" stroke="#55595F" stroke-width="3"/>
<rect opacity="0.2" x="294.649" y="33.5607" width="92" height="120" rx="10" transform="rotate(15 294.649 33.5607)" fill="#1E2228" stroke="#55595F" stroke-width="3"/>
<rect opacity="0.4" x="290.924" y="24.2803" width="92" height="120" rx="10" transform="rotate(15 290.924 24.2803)" fill="#1E2228" stroke="#55595F" stroke-width="3"/>
<rect x="287.199" y="15" width="92" height="120" rx="10" transform="rotate(15 287.199 15)" fill="#1E2228" stroke="#55595F" stroke-width="3"/>
<path d="M290.719 127.753L293.846 128.591L292.879 106.448L289.596 105.569L277.687 124.261L280.659 125.057L283.809 119.866L290.601 121.685L290.719 127.753ZM290.248 109.247L290.348 109.273L290.548 119.108L285.143 117.66L290.248 109.247ZM306.366 123.407L307.967 132.374L311.278 133.262L309.429 123.637C311.933 123.458 313.982 121.642 314.695 118.982C315.73 115.119 313.791 112.052 309.617 110.933L302.599 109.053L297.129 129.47L300.057 130.255L302.192 122.289L306.366 123.407ZM304.857 112.342L308.635 113.354C311.224 114.048 312.353 115.837 311.708 118.242C311.064 120.647 309.182 121.614 306.508 120.898L302.829 119.912L304.857 112.342ZM327.224 137.534L327.91 134.973L323.75 133.859L327.849 118.563L332.009 119.678L332.695 117.117L321.432 114.099L320.746 116.66L324.906 117.775L320.807 133.07L316.647 131.955L315.961 134.516L327.224 137.534Z" fill="#F1F1F1"/>
<line x1="268.435" y1="85.0296" x2="357.3" y2="108.841" stroke="#55595F" stroke-width="3"/>
<rect opacity="0.2" x="4.14111" y="57.3721" width="92" height="120" rx="10" transform="rotate(-15 4.14111 57.3721)" fill="#1E2228" stroke="#55595F" stroke-width="3"/>
<rect opacity="0.4" x="7.86609" y="48.0917" width="92" height="120" rx="10" transform="rotate(-15 7.86609 48.0917)" fill="#1E2228" stroke="#55595F" stroke-width="3"/>
<rect x="11.5911" y="38.8114" width="92" height="120" rx="10" transform="rotate(-15 11.5911 38.8114)" fill="#1E2228" stroke="#55595F" stroke-width="3"/>
<path d="M71.8139 131.679L62.4895 134.177L60.7379 127.64L69.5388 125.282L68.8791 122.82L60.0782 125.179L58.4214 118.995L67.7458 116.497L67.0444 113.879L54.7628 117.17L60.2336 137.587L72.5152 134.297L71.8139 131.679ZM75.8545 133.402L78.8683 132.594L81.6957 123.45L81.823 123.416L88.8011 129.933L92.013 129.072L82.8981 120.58L86.627 108.632L83.5425 109.459L80.8058 118.715L80.6785 118.749L73.7229 112.09L70.4261 112.973L79.4588 121.441L75.8545 133.402ZM100.307 118.312L106.176 125.277L109.487 124.39L103.073 116.979C105.153 115.573 106.019 112.975 105.306 110.315C104.271 106.452 101.059 104.765 96.8853 105.883L89.8672 107.764L95.3381 128.181L98.267 127.396L96.1325 119.43L100.307 118.312ZM93.4672 109.483L97.2451 108.471C99.8344 107.777 101.706 108.762 102.35 111.168C102.995 113.573 101.849 115.351 99.1744 116.068L95.4955 117.053L93.4672 109.483Z" fill="#F1F1F1"/>
<line x1="30.3555" y1="108.841" x2="119.221" y2="85.0297" stroke="#55595F" stroke-width="3"/>
<path fill-rule="evenodd" clip-rule="evenodd" d="M206.5 22.3333V24.4167H202.333V22.3333C202.333 21.1875 201.396 20.25 200.25 20.25H187.75C186.604 20.25 185.667 21.1875 185.667 22.3333V24.4167H181.5V22.3333C181.5 21.1875 180.563 20.25 179.417 20.25C178.271 20.25 177.333 21.1875 177.333 22.3333V55.6667C177.333 56.8125 178.271 57.75 179.417 57.75C180.563 57.75 181.5 56.8125 181.5 55.6667V53.5833H185.667V55.6667C185.667 56.8125 186.604 57.75 187.75 57.75H200.25C201.396 57.75 202.333 56.8125 202.333 55.6667V53.5833H206.5V55.6667C206.5 56.8125 207.438 57.75 208.583 57.75C209.729 57.75 210.667 56.8125 210.667 55.6667V22.3333C210.667 21.1875 209.729 20.25 208.583 20.25C207.438 20.25 206.5 21.1875 206.5 22.3333ZM185.667 49.4167H181.5V45.25H185.667V49.4167ZM181.5 41.0833H185.667V36.9167H181.5V41.0833ZM185.667 32.75H181.5V28.5833H185.667V32.75ZM202.333 49.4167H206.5V45.25H202.333V49.4167ZM206.5 41.0833H202.333V36.9167H206.5V41.0833ZM202.333 32.75H206.5V28.5833H202.333V32.75Z" fill="#55595F"/>
</svg>
